<?xml version="1.0" standalone="no"?>
<!DOCTYPE svg PUBLIC "-//W3C//DTD SVG 20010904//EN"
 "http://www.w3.org/TR/2001/REC-SVG-20010904/DTD/svg10.dtd">
<svg version="1.0" xmlns="http://www.w3.org/2000/svg"
 width="500.000000pt" height="500.000000pt" viewBox="0 0 500.000000 500.000000"
 preserveAspectRatio="xMidYMid meet">

<g transform="translate(0.000000,500.000000) scale(0.100000,-0.100000)"
fill="#000000" stroke="none">
<path d="M0 2500 l0 -2500 1203 2 c1062 3 1202 5 1199 18 -2 8 0 12 4 8 4 -4
13 0 21 10 13 15 14 15 10 -10 l-4 -28 1283 0 1284 0 0 2500 0 2500 -2500 0
-2500 0 0 -2500z m2498 2423 c-16 -2 -40 -2 -55 0 -16 2 -3 4 27 4 30 0 43 -2
28 -4z m182 -13 l40 -20 0 -80 0 -80 -30 0 c-40 0 -38 -13 5 -39 32 -19 35
-24 35 -69 0 -48 1 -49 26 -44 21 4 33 19 61 84 20 43 38 77 40 75 1 -2 -13
-40 -34 -85 -30 -68 -40 -82 -59 -82 -28 0 -35 -10 -27 -38 5 -20 12 -22 79
-22 l74 0 0 30 c0 20 -5 30 -15 30 -18 0 -18 5 -5 31 9 16 22 19 85 19 63 0
76 -3 85 -19 13 -26 13 -31 -5 -31 -10 0 -15 -10 -15 -30 l0 -30 75 0 75 0 0
29 c0 23 -5 30 -22 33 -17 2 -36 36 -99 176 -43 94 -75 172 -71 172 18 0 72
-42 72 -55 0 -10 -5 -13 -12 -9 -7 4 -8 3 -4 -4 4 -6 12 -9 20 -6 8 3 17 -10
26 -35 7 -22 18 -38 23 -34 6 3 7 1 3 -5 -3 -6 9 -43 27 -84 19 -40 37 -85 40
-99 4 -16 21 -36 42 -48 27 -16 35 -27 35 -50 0 -35 -8 -38 -82 -36 -37 2 -68
9 -85 21 -16 11 -37 21 -48 24 -14 4 -21 16 -23 37 -3 27 -7 31 -29 30 -25 -2
-47 -27 -24 -27 6 0 11 -19 11 -43 l0 -43 -74 2 c-55 1 -82 6 -103 20 -42 29
-56 32 -71 18 -18 -19 -108 -44 -154 -44 -58 0 -124 19 -145 42 -17 20 -17 20
2 16 11 -2 19 -11 17 -19 -3 -11 -1 -12 9 -1 7 6 29 12 49 12 20 0 59 7 85 15
47 14 80 11 54 -5 -23 -15 -19 -37 7 -34 34 3 43 12 39 35 -3 14 0 19 9 16 10
-4 13 3 11 24 -1 16 2 29 9 29 6 0 4 4 -4 10 -17 11 -22 63 -5 56 6 -2 12 2
12 9 0 7 -7 11 -16 8 -12 -4 -13 -3 -3 5 11 8 11 10 -1 15 -11 4 -13 -4 -12
-34 1 -23 -3 -39 -9 -39 -6 0 -5 -4 3 -9 19 -12 24 -44 7 -38 -10 4 -13 -3
-11 -24 3 -29 -8 -38 -21 -18 -4 6 -6 54 -5 105 l2 94 -90 0 -91 0 0 -30 c0
-30 1 -30 55 -30 54 0 55 -1 55 -29 0 -24 -3 -28 -26 -25 -14 1 -41 13 -60 26
-28 19 -34 29 -34 61 l0 37 83 0 c46 0 87 3 91 7 4 4 22 8 39 8 30 0 32 3 33
35 0 19 -2 40 -5 45 -3 6 -6 22 -6 38 0 15 -3 27 -7 27 -31 0 -32 -1 -19 -9
18 -12 24 -44 7 -38 -9 4 -12 -9 -11 -44 1 -35 -2 -48 -11 -45 -6 2 -16 0 -22
-6 -7 -7 -21 0 -46 24 -29 28 -42 34 -64 30 -69 -13 -105 -70 -100 -158 3 -61
3 -61 88 -67 43 -3 42 -4 -10 -5 -111 -4 -179 80 -150 186 16 61 59 92 126 92
45 0 59 -4 79 -25 14 -13 25 -29 25 -35 0 -5 16 -10 35 -10 l35 0 0 70 0 70
-35 0 c-25 0 -35 -4 -35 -16 0 -8 -4 -13 -10 -9 -5 3 -7 12 -3 20 8 22 67 19
113 -5z m-789 -60 c18 0 19 -8 19 -140 0 -133 -1 -140 -20 -140 -16 0 -20 -7
-20 -30 l0 -30 90 0 90 0 0 30 c0 28 -3 30 -35 30 l-35 0 0 50 0 50 50 0 c49
0 50 1 50 30 0 29 -1 30 -50 30 l-50 0 0 60 0 60 66 0 c57 0 67 -3 71 -20 4
-14 14 -20 35 -20 l30 0 -4 55 c-1 30 0 55 3 55 3 0 21 -10 40 -23 33 -22 34
-25 31 -77 -5 -78 -41 -93 -105 -41 -47 37 -87 33 -87 -9 0 -26 25 -45 53 -41
4 1 7 -7 5 -16 -2 -13 3 -18 22 -17 25 1 26 -1 20 -40 l-5 -41 -50 1 c-42 0
-51 -3 -51 -18 0 -10 4 -18 9 -18 4 0 6 -4 3 -9 -3 -5 1 -12 10 -15 8 -3 12
-11 8 -17 -4 -7 -3 -9 4 -6 20 13 40 -5 44 -39 2 -19 -1 -35 -7 -35 -5 -1 -50
-2 -99 -3 -79 -1 -93 1 -128 24 -33 21 -38 29 -38 62 0 31 4 38 20 38 19 0 20
7 20 130 0 123 -1 130 -20 130 -17 0 -20 6 -18 43 l1 42 4 -37 c3 -30 9 -38
24 -38z m951 36 c-4 -33 -3 -35 32 -38 l36 -3 -24 -50 c-14 -27 -25 -46 -25
-42 -1 4 5 20 13 36 14 26 13 28 -15 45 -23 14 -29 24 -29 52 0 19 4 34 8 34
4 0 6 -15 4 -34z m-495 -7 c-52 -43 -77 -96 -77 -164 0 -68 19 -115 62 -157
l33 -31 -32 22 c-68 46 -96 178 -54 260 18 35 82 101 99 101 3 0 -10 -14 -31
-31z m348 -92 c1 -22 -3 -36 -9 -34 -14 5 -16 57 -2 57 6 0 4 5 -4 11 -13 9
-13 10 0 7 9 -3 15 -18 15 -41z m281 -34 c9 -21 18 -48 19 -60 3 -21 -1 -23
-41 -23 -24 0 -44 5 -44 11 0 12 41 109 46 109 2 0 11 -17 20 -37z m-581 -241
c-3 -3 -11 0 -18 7 -9 10 -8 11 6 5 10 -3 15 -9 12 -12z m274 -22 c-7 -5 -19
-6 -26 -3 -11 5 -12 8 -2 13 7 5 19 6 26 3 11 -5 12 -8 2 -13z m-157 -3376
c21 -32 36 -67 34 -76 -2 -10 2 -18 8 -18 14 0 50 -109 68 -207 7 -40 15 -60
23 -57 17 7 11 -227 -10 -349 l-17 -98 50 -57 c27 -31 59 -65 70 -75 20 -19
21 -18 29 20 4 21 8 83 8 138 0 121 -21 211 -75 321 -26 53 -35 82 -29 89 7 7
10 7 9 0 -4 -20 13 -55 23 -48 6 3 7 1 3 -6 -4 -6 -1 -22 7 -35 8 -12 21 -41
28 -64 6 -23 15 -39 19 -37 3 2 6 -4 6 -13 0 -46 5 -73 12 -69 4 3 7 -9 8 -26
0 -18 2 -68 3 -112 1 -44 0 -91 -2 -105 -10 -55 -20 -80 -32 -80 -19 0 -156
161 -148 174 3 6 0 5 -8 -2 -7 -6 -33 -13 -58 -14 l-46 -1 50 -6 c42 -5 51
-10 53 -28 3 -17 -2 -23 -17 -24 -12 -1 -31 -2 -43 -3 -13 -1 -28 1 -33 5 -7
5 -11 -10 -12 -46 -2 -65 -7 -75 -37 -75 -21 0 -24 6 -30 53 -4 28 -7 63 -7
77 -1 15 -3 18 -6 9 -2 -9 -16 -19 -31 -21 -45 -6 -62 1 -62 27 0 22 3 24 50
21 28 -1 50 1 50 5 0 4 -24 9 -54 11 -30 1 -54 1 -53 -2 1 -3 -10 -18 -25 -33
-16 -16 -28 -35 -28 -43 0 -8 -4 -13 -8 -10 -5 3 -25 -13 -45 -34 -20 -22 -41
-40 -46 -40 -19 0 -34 114 -28 220 7 123 36 226 91 325 31 54 40 64 52 54 12
-9 14 -6 14 19 0 69 40 211 68 245 8 9 12 17 8 17 -10 0 56 123 74 137 23 18
32 12 72 -53z m733 -703 c3 -5 2 -12 -3 -15 -5 -3 -9 1 -9 9 0 17 3 19 12 6z
m12 -126 c0 -8 -4 -12 -9 -9 -5 3 -6 10 -3 15 9 13 12 11 12 -6z m-336 -252
c13 -16 12 -17 -3 -4 -10 7 -18 15 -18 17 0 8 8 3 21 -13z"/>
<path d="M2439 4829 c-11 -5 -16 -19 -14 -39 2 -20 -2 -29 -9 -27 -6 2 -10 13
-10 25 1 12 -3 19 -7 16 -5 -3 -7 -9 -4 -14 3 -4 -2 -10 -10 -13 -8 -4 -12
-15 -10 -27 2 -11 -1 -20 -8 -20 -7 0 -6 -4 3 -10 13 -9 13 -10 0 -10 -12 -1
-12 -2 1 -10 11 -6 16 -20 14 -40 -1 -17 4 -35 13 -42 13 -11 14 -11 7 2 -13
21 -13 80 -1 80 6 0 4 4 -4 10 -17 10 -22 62 -6 57 6 -2 10 -13 10 -25 -1 -12
3 -19 7 -16 5 3 7 9 4 14 -3 4 2 10 10 13 8 4 12 15 10 27 -3 16 0 20 10 16 9
-3 12 1 10 15 -3 13 0 19 8 16 7 -3 11 -10 9 -16 -1 -7 2 -10 8 -6 6 3 8 11 5
16 -9 13 9 11 23 -3 9 -9 15 -9 25 1 10 11 9 12 -1 7 -7 -4 -18 -4 -25 1 -16
13 -49 13 -68 2z"/>
<path d="M2530 4636 c0 -2 7 -7 16 -10 8 -3 12 -2 9 4 -6 10 -25 14 -25 6z"/>
<path d="M2933 4575 c0 -8 4 -12 9 -9 5 3 6 10 3 15 -9 13 -12 11 -12 -6z"/>
<path d="M2914 4506 c1 -8 5 -18 8 -22 4 -3 5 1 4 10 -1 8 -5 18 -8 22 -4 3
-5 -1 -4 -10z"/>
<path d="M3214 4496 c1 -8 5 -18 8 -22 4 -3 5 1 4 10 -1 8 -5 18 -8 22 -4 3
-5 -1 -4 -10z"/>
<path d="M2594 4493 c5 -9 -1 -12 -22 -9 -16 2 -29 -2 -29 -8 0 -6 15 -11 32
-11 31 0 40 14 20 32 -4 4 -5 2 -1 -4z"/>
<path d="M2943 4485 c0 -8 4 -12 9 -9 5 3 6 10 3 15 -9 13 -12 11 -12 -6z"/>
<path d="M2513 4475 c0 -8 4 -12 9 -9 5 3 6 10 3 15 -9 13 -12 11 -12 -6z"/>
<path d="M2204 4846 c1 -8 5 -18 8 -22 4 -3 5 1 4 10 -1 8 -5 18 -8 22 -4 3
-5 -1 -4 -10z"/>
<path d="M2043 4825 c0 -8 4 -12 9 -9 5 3 6 10 3 15 -9 13 -12 11 -12 -6z"/>
<path d="M2084 4506 c1 -8 5 -18 8 -22 4 -3 5 1 4 10 -1 8 -5 18 -8 22 -4 3
-5 -1 -4 -10z"/>
<path d="M2361 996 c-13 -17 -39 -103 -50 -170 -14 -76 -14 -277 -1 -386 15
-117 16 -120 52 -120 l30 0 -3 73 c-3 67 -1 76 25 110 16 20 34 37 41 37 7 0
27 -16 44 -36 31 -35 32 -37 25 -110 l-7 -74 32 0 c39 0 45 13 61 144 18 140
8 328 -23 437 -14 48 -28 92 -32 98 -9 16 -181 13 -194 -3z m174 -109 c42 -42
52 -77 33 -125 -15 -41 -68 -82 -105 -82 -39 0 -93 30 -108 61 -44 85 12 178
109 179 30 0 45 -7 71 -33z"/>
<path d="M2530 871 c0 -6 4 -13 10 -16 6 -3 7 1 4 9 -7 18 -14 21 -14 7z"/>
<path d="M2351 784 c0 -11 3 -14 6 -6 3 7 2 16 -1 19 -3 4 -6 -2 -5 -13z"/>
<path d="M2524 728 l-19 -23 23 19 c21 18 27 26 19 26 -2 0 -12 -10 -23 -22z"/>
<path d="M2226 672 c-63 -126 -81 -201 -81 -347 0 -180 4 -184 87 -92 l67 74
-16 84 c-8 46 -16 144 -17 216 0 73 -2 133 -3 133 -2 0 -18 -31 -37 -68z"/>
<path d="M2271 639 c0 -24 4 -53 9 -64 5 -12 6 4 3 40 -7 72 -13 85 -12 24z"/>
<path d="M2283 505 c0 -27 2 -38 4 -22 2 15 2 37 0 50 -2 12 -4 0 -4 -28z"/>
<path d="M2632 520 c0 -19 2 -27 5 -17 2 9 2 25 0 35 -3 9 -5 1 -5 -18z"/>
<path d="M2449 491 c-13 -10 -28 -19 -32 -19 -5 0 -12 -4 -15 -8 -4 -4 -2 -4
4 -1 7 4 14 -46 23 -156 6 -88 14 -163 16 -165 2 -3 11 -2 20 1 11 5 15 21 15
63 0 42 5 61 18 71 9 8 11 12 5 8 -15 -7 -18 70 -6 140 5 32 8 36 15 20 8 -20
8 -20 5 0 -1 11 -5 18 -8 15 -10 -9 -40 23 -35 37 7 17 3 17 -25 -6z"/>
<path d="M2621 434 c0 -11 3 -14 6 -6 3 7 2 16 -1 19 -3 4 -6 -2 -5 -13z"/>
<path d="M2292 410 c0 -14 2 -19 5 -12 2 6 2 18 0 25 -3 6 -5 1 -5 -13z"/>
<path d="M2402 405 c0 -16 2 -22 5 -12 2 9 2 23 0 30 -3 6 -5 -1 -5 -18z"/>
<path d="M2612 375 c0 -16 2 -22 5 -12 2 9 2 23 0 30 -3 6 -5 -1 -5 -18z"/>
<path d="M2502 345 c0 -16 2 -22 5 -12 2 9 2 23 0 30 -3 6 -5 -1 -5 -18z"/>
</g>
</svg>
